<svg width="180" height="120" fill="none" xmlns="http://www.w3.org/2000/svg"><rect opacity=".3" width="180" height="120" rx="10" fill="#D9D9D9"/><path d="M89.59 95.954c-4.68 0-8.817-.829-12.408-2.488-3.568-1.682-6.353-3.989-8.353-6.92-2-2.955-2.988-6.319-2.965-10.092-.023-2.954.556-5.681 1.738-8.181 1.182-2.523 2.796-4.625 4.841-6.307 2.068-1.705 4.375-2.784 6.92-3.239v-.409c-3.34-.863-6-2.738-7.977-5.625-1.977-2.909-2.954-6.216-2.931-9.92-.023-3.546.874-6.716 2.693-9.512 1.818-2.795 4.318-5 7.5-6.613 3.204-1.614 6.852-2.42 10.943-2.42 4.045 0 7.659.806 10.841 2.42 3.182 1.613 5.682 3.818 7.5 6.613 1.841 2.796 2.773 5.966 2.795 9.512-.022 3.704-1.034 7.011-3.034 9.92-1.977 2.887-4.602 4.762-7.875 5.625v.41c2.523.454 4.796 1.533 6.818 3.238 2.023 1.682 3.637 3.784 4.841 6.307 1.205 2.5 1.818 5.227 1.841 8.181-.023 3.773-1.045 7.137-3.068 10.092-2 2.931-4.784 5.238-8.352 6.92-3.546 1.659-7.648 2.489-12.307 2.489zm0-7.5c3.16 0 5.887-.51 8.183-1.533 2.295-1.023 4.068-2.467 5.318-4.33 1.25-1.864 1.886-4.045 1.909-6.545-.023-2.637-.705-4.967-2.045-6.99-1.341-2.022-3.17-3.613-5.49-4.772-2.294-1.159-4.92-1.739-7.874-1.739-2.977 0-5.636.58-7.977 1.74-2.319 1.158-4.148 2.75-5.489 4.772-1.318 2.022-1.966 4.352-1.943 6.989-.023 2.5.58 4.681 1.807 6.545 1.25 1.864 3.034 3.307 5.352 4.33 2.318 1.022 5.068 1.533 8.25 1.533zm0-33.136c2.5 0 4.717-.5 6.649-1.5 1.954-1 3.488-2.398 4.602-4.193 1.114-1.795 1.682-3.898 1.704-6.307-.022-2.363-.579-4.42-1.67-6.17-1.09-1.773-2.602-3.137-4.534-4.091-1.932-.977-4.182-1.466-6.75-1.466-2.614 0-4.898.489-6.852 1.466-1.955.954-3.466 2.318-4.535 4.09-1.068 1.75-1.59 3.808-1.568 6.171-.022 2.41.512 4.512 1.603 6.307 1.113 1.795 2.647 3.193 4.602 4.193 1.955 1 4.205 1.5 6.75 1.5z" fill="#000"/></svg>