<svg width="180" height="120" fill="none" xmlns="http://www.w3.org/2000/svg"><rect opacity=".3" width="180" height="120" rx="10" fill="#D9D9D9"/><path d="M89.454 24.227c2.864.023 5.728.569 8.592 1.637 2.863 1.068 5.477 2.84 7.84 5.318 2.364 2.454 4.262 5.807 5.694 10.057 1.431 4.25 2.147 9.58 2.147 15.988 0 6.205-.591 11.716-1.772 16.534-1.16 4.796-2.841 8.841-5.046 12.137-2.182 3.295-4.841 5.795-7.977 7.5-3.114 1.704-6.636 2.556-10.568 2.556-3.91 0-7.398-.772-10.466-2.318-3.046-1.568-5.546-3.738-7.5-6.511-1.932-2.796-3.17-6.034-3.716-9.716H75c.75 3.205 2.239 5.852 4.466 7.943 2.25 2.069 5.216 3.102 8.898 3.102 5.386 0 9.636-2.352 12.75-7.056 3.136-4.705 4.704-11.352 4.704-19.943h-.545a21.407 21.407 0 01-4.534 4.943 19.977 19.977 0 01-5.83 3.204c-2.136.75-4.409 1.125-6.818 1.125-4 0-7.67-.988-11.011-2.966-3.319-2-5.978-4.738-7.978-8.215-1.977-3.5-2.966-7.5-2.966-12 0-4.273.955-8.182 2.864-11.728 1.932-3.568 4.636-6.409 8.114-8.522 3.5-2.114 7.613-3.137 12.34-3.069zm0 7.5c-2.863 0-5.443.716-7.738 2.148-2.273 1.41-4.08 3.318-5.42 5.727-1.319 2.387-1.978 5.034-1.978 7.944 0 2.909.636 5.556 1.91 7.943 1.295 2.363 3.056 4.25 5.283 5.659 2.25 1.386 4.807 2.08 7.67 2.08 2.16 0 4.171-.421 6.035-1.262a15.635 15.635 0 004.875-3.511 17.037 17.037 0 003.307-5.08 15.37 15.37 0 001.193-5.966c0-2.727-.659-5.284-1.977-7.67a15.7 15.7 0 00-5.387-5.796c-2.273-1.477-4.863-2.216-7.773-2.216z" fill="#000"/></svg>