<svg width="180" height="120" fill="none" xmlns="http://www.w3.org/2000/svg"><rect opacity=".3" width="180" height="120" rx="10" fill="#D9D9D9"/><path d="M90.41 95.954c-2.864-.045-5.728-.59-8.592-1.636-2.864-1.045-5.477-2.807-7.84-5.284-2.364-2.5-4.262-5.875-5.694-10.125-1.432-4.273-2.148-9.636-2.148-16.09 0-6.183.58-11.66 1.739-16.433 1.16-4.795 2.84-8.83 5.046-12.102 2.204-3.295 4.863-5.795 7.977-7.5 3.136-1.704 6.67-2.557 10.602-2.557 3.91 0 7.386.784 10.432 2.352 3.068 1.546 5.568 3.705 7.5 6.478 1.932 2.773 3.182 5.966 3.75 9.58h-8.318c-.773-3.137-2.273-5.74-4.5-7.807-2.228-2.069-5.182-3.103-8.864-3.103-5.41 0-9.67 2.353-12.784 7.057-3.091 4.705-4.648 11.307-4.67 19.807h.545c1.273-1.932 2.784-3.58 4.534-4.943a20.45 20.45 0 015.864-3.205c2.136-.75 4.397-1.125 6.784-1.125 4 0 7.659 1 10.977 3 3.318 1.977 5.977 4.716 7.977 8.216 2 3.477 3 7.466 3 11.966 0 4.318-.966 8.273-2.897 11.864-1.932 3.568-4.648 6.409-8.148 8.522-3.478 2.091-7.568 3.114-12.273 3.069zm0-7.5c2.863 0 5.43-.715 7.704-2.147 2.295-1.432 4.102-3.353 5.42-5.761 1.341-2.41 2.011-5.092 2.011-8.046 0-2.886-.647-5.511-1.943-7.875-1.272-2.386-3.034-4.284-5.284-5.693-2.227-1.41-4.772-2.114-7.636-2.114-2.16 0-4.17.432-6.034 1.296-1.864.84-3.5 2-4.91 3.477a16.797 16.797 0 00-3.272 5.08 15.199 15.199 0 00-1.193 5.965c0 2.773.648 5.364 1.943 7.773 1.318 2.41 3.114 4.352 5.386 5.83 2.296 1.477 4.898 2.215 7.807 2.215z" fill="#000"/></svg>