<svg width="180" height="120" fill="none" xmlns="http://www.w3.org/2000/svg"><rect opacity=".3" width="180" height="120" rx="10" fill="#D9D9D9"/><path d="M69.773 25.182V95h-8.455V34.045h-.409L43.864 45.364v-8.591l17.454-11.591h8.455zm42.852 70.773c-5.136 0-9.511-1.398-13.125-4.194-3.614-2.818-6.375-6.897-8.284-12.238-1.91-5.364-2.864-11.841-2.864-19.432 0-7.546.955-13.989 2.864-19.33 1.932-5.363 4.705-9.454 8.318-12.272 3.636-2.841 8-4.262 13.091-4.262 5.091 0 9.443 1.42 13.057 4.262 3.636 2.818 6.409 6.909 8.318 12.272 1.932 5.341 2.898 11.784 2.898 19.33 0 7.59-.955 14.068-2.864 19.432-1.909 5.34-4.67 9.42-8.284 12.238-3.614 2.796-7.989 4.194-13.125 4.194zm0-7.5c5.091 0 9.045-2.455 11.864-7.364 2.818-4.91 4.227-11.91 4.227-21 0-6.046-.648-11.193-1.943-15.443-1.273-4.25-3.114-7.489-5.523-9.716-2.386-2.227-5.261-3.341-8.625-3.341-5.045 0-8.989 2.489-11.83 7.466-2.84 4.954-4.26 11.966-4.26 21.034 0 6.045.636 11.182 1.908 15.409 1.273 4.227 3.102 7.443 5.489 9.648 2.409 2.204 5.307 3.306 8.693 3.306z" fill="#000"/></svg>