<svg width="180" height="120" fill="none" xmlns="http://www.w3.org/2000/svg"><rect opacity=".3" width="180" height="120" rx="10" fill="#D9D9D9"/><path d="M67.227 95v-6.136l23.046-25.228c2.704-2.954 4.931-5.522 6.681-7.704 1.75-2.205 3.046-4.273 3.887-6.205.864-1.954 1.295-4 1.295-6.136 0-2.455-.591-4.58-1.772-6.375-1.16-1.796-2.75-3.182-4.773-4.16-2.023-.976-4.295-1.465-6.818-1.465-2.682 0-5.023.557-7.023 1.67a11.5 11.5 0 00-4.602 4.603c-1.069 1.977-1.602 4.295-1.602 6.954H67.5c0-4.09.943-7.682 2.83-10.773 1.886-3.09 4.454-5.5 7.704-7.227 3.273-1.727 6.943-2.59 11.011-2.59 4.091 0 7.716.863 10.876 2.59 3.159 1.727 5.636 4.057 7.431 6.989 1.796 2.932 2.693 6.193 2.693 9.784 0 2.568-.465 5.08-1.397 7.534-.909 2.432-2.5 5.148-4.773 8.148-2.25 2.977-5.375 6.613-9.375 10.909L78.818 86.954v.546h32.455V95H67.227z" fill="#000"/></svg>