<svg width="180" height="120" fill="none" xmlns="http://www.w3.org/2000/svg"><rect opacity=".3" width="180" height="120" rx="10" fill="#D9D9D9"/><path d="M69.773 25.182V95h-8.455V34.045h-.409L43.864 45.364v-8.591l17.454-11.591h8.455zM89.853 95v-6.136l23.045-25.228c2.704-2.954 4.932-5.522 6.682-7.704 1.75-2.205 3.045-4.273 3.886-6.205.864-1.954 1.295-4 1.295-6.136 0-2.455-.591-4.58-1.772-6.375-1.159-1.796-2.75-3.182-4.773-4.16-2.023-.976-4.296-1.465-6.818-1.465-2.682 0-5.023.557-7.023 1.67a11.504 11.504 0 00-4.602 4.603c-1.069 1.977-1.602 4.295-1.602 6.954h-8.046c0-4.09.943-7.682 2.83-10.773 1.886-3.09 4.454-5.5 7.704-7.227 3.273-1.727 6.943-2.59 11.011-2.59 4.091 0 7.716.863 10.875 2.59 3.16 1.727 5.637 4.057 7.432 6.989 1.796 2.932 2.693 6.193 2.693 9.784 0 2.568-.465 5.08-1.397 7.534-.909 2.432-2.5 5.148-4.773 8.148-2.25 2.977-5.375 6.613-9.375 10.909l-15.682 16.772v.546h32.455V95H89.852z" fill="#000"/></svg>