<svg width="180" height="120" fill="none" xmlns="http://www.w3.org/2000/svg"><rect opacity=".3" width="180" height="120" rx="10" fill="#D9D9D9"/><path d="M89.818 95.954c-4.5 0-8.511-.772-12.034-2.318-3.5-1.545-6.284-3.693-8.352-6.443-2.046-2.772-3.16-5.989-3.341-9.647h8.59c.183 2.25.955 4.193 2.319 5.829 1.364 1.614 3.148 2.864 5.352 3.75 2.205.886 4.648 1.33 7.33 1.33 3 0 5.659-.523 7.977-1.569 2.318-1.045 4.136-2.5 5.455-4.363 1.318-1.864 1.977-4.023 1.977-6.477 0-2.569-.636-4.83-1.909-6.785-1.273-1.977-3.137-3.522-5.591-4.636-2.455-1.114-5.455-1.67-9-1.67H83v-7.5h5.59c2.774 0 5.206-.5 7.296-1.5 2.114-1 3.762-2.41 4.944-4.228 1.204-1.818 1.806-3.954 1.806-6.409 0-2.363-.522-4.42-1.568-6.17-1.045-1.75-2.522-3.114-4.432-4.091-1.886-.977-4.113-1.466-6.681-1.466-2.41 0-4.682.443-6.819 1.33-2.113.863-3.84 2.124-5.181 3.784-1.341 1.636-2.069 3.613-2.182 5.931H67.59c.136-3.659 1.239-6.863 3.307-9.613 2.068-2.773 4.773-4.932 8.113-6.478 3.364-1.545 7.057-2.318 11.08-2.318 4.318 0 8.023.875 11.114 2.625 3.09 1.727 5.465 4.012 7.125 6.853a17.94 17.94 0 012.488 9.204c0 3.932-1.034 7.284-3.102 10.057-2.046 2.773-4.83 4.693-8.352 5.761v.546c4.409.727 7.852 2.602 10.329 5.625 2.477 3 3.716 6.716 3.716 11.148 0 3.795-1.034 7.204-3.102 10.227-2.046 3-4.841 5.363-8.387 7.09-3.545 1.728-7.58 2.591-12.102 2.591z" fill="#000"/></svg>