<svg width="180" height="120" fill="none" xmlns="http://www.w3.org/2000/svg"><rect opacity=".3" width="180" height="120" rx="10" fill="#D9D9D9"/><path d="M89.046 95.954c-4 0-7.603-.795-10.807-2.386-3.205-1.59-5.773-3.772-7.705-6.545-1.932-2.773-2.989-5.932-3.17-9.477h8.181c.319 3.158 1.75 5.772 4.296 7.84 2.568 2.046 5.636 3.069 9.205 3.069 2.863 0 5.408-.67 7.636-2.012 2.25-1.34 4.011-3.182 5.284-5.522 1.295-2.364 1.943-5.035 1.943-8.012 0-3.045-.67-5.761-2.011-8.148-1.318-2.409-3.137-4.306-5.455-5.693-2.318-1.386-4.966-2.09-7.943-2.113-2.136-.023-4.33.306-6.58.988-2.25.66-4.102 1.512-5.556 2.557l-7.91-.955 4.228-34.363h36.273v7.5H79.773l-2.455 20.59h.41c1.431-1.136 3.227-2.079 5.386-2.829a20.423 20.423 0 016.75-1.125c4.272 0 8.08 1.023 11.42 3.068 3.364 2.023 6 4.796 7.909 8.319 1.932 3.522 2.898 7.545 2.898 12.068 0 4.454-1 8.431-3 11.931-1.977 3.478-4.705 6.228-8.182 8.25-3.477 2-7.432 3-11.864 3z" fill="#000"/></svg>