<svg width="220" height="52" fill="none" xmlns="http://www.w3.org/2000/svg"><rect opacity=".4" width="220" height="52" rx="26" fill="#fff"/><path opacity=".4" d="M77.422 32v-1.616c.314.059.557.053.728-.016a.741.741 0 00.384-.416c.085-.203.16-.472.224-.808.085-.475.16-1.021.224-1.64.069-.619.128-1.28.176-1.984.053-.704.1-1.424.144-2.16h6.36V32h-1.92v-6.832h-2.744a127.603 127.603 0 01-.216 2.464c-.043.437-.091.853-.144 1.248-.048.39-.1.723-.152 1-.123.624-.3 1.117-.528 1.48a1.502 1.502 0 01-.944.696c-.406.107-.936.088-1.592-.056zm14.303.24c-.864 0-1.619-.195-2.264-.584a4.01 4.01 0 01-1.504-1.608c-.352-.688-.528-1.477-.528-2.368 0-.907.181-1.701.544-2.384a4.01 4.01 0 011.512-1.6c.645-.384 1.392-.576 2.24-.576.87 0 1.627.195 2.272.584.645.39 1.147.928 1.504 1.616.357.683.536 1.47.536 2.36 0 .896-.181 1.688-.544 2.376a4.012 4.012 0 01-1.504 1.608c-.645.384-1.4.576-2.264.576zm0-1.808c.768 0 1.339-.256 1.712-.768s.56-1.173.56-1.984c0-.837-.19-1.504-.568-2-.379-.501-.947-.752-1.704-.752-.517 0-.944.117-1.28.352-.33.23-.576.552-.736.968-.16.41-.24.888-.24 1.432 0 .837.19 1.507.568 2.008.384.496.947.744 1.688.744zM97.8 32v-8.64h6.16v1.808h-4.232V32H97.8zm11.347.24c-.864 0-1.619-.195-2.264-.584a4.01 4.01 0 01-1.504-1.608c-.352-.688-.528-1.477-.528-2.368 0-.907.181-1.701.544-2.384a4.015 4.015 0 011.512-1.6c.645-.384 1.392-.576 2.24-.576.869 0 1.627.195 2.272.584.645.39 1.147.928 1.504 1.616.357.683.536 1.47.536 2.36 0 .896-.181 1.688-.544 2.376a4.01 4.01 0 01-1.504 1.608c-.645.384-1.4.576-2.264.576zm0-1.808c.768 0 1.339-.256 1.712-.768s.56-1.173.56-1.984c0-.837-.189-1.504-.568-2-.379-.501-.947-.752-1.704-.752-.517 0-.944.117-1.28.352-.331.23-.576.552-.736.968-.16.41-.24.888-.24 1.432 0 .837.189 1.507.568 2.008.384.496.947.744 1.688.744zM117.218 32v-6.928h-2.888V23.36h7.704v1.712h-2.888V32h-1.928zm13.82-8.64V32h-1.848v-5.64L125.078 32h-1.544v-8.64h1.848v5.496l4.128-5.496h1.528zm2.23 8.64v-8.64h7.504V32h-1.928v-6.832h-3.648V32h-1.928z" fill="#000"/></svg>