<svg width="180" height="120" viewBox="0 0 180 120" fill="none" xmlns="http://www.w3.org/2000/svg">
<rect opacity="0.3" width="180" height="120" rx="10" fill="#D9D9D9"/>
<path d="M67.2273 95V88.8636L90.2727 63.6364C92.9773 60.6818 95.2045 58.1136 96.9545 55.9318C98.7045 53.7273 100 51.6591 100.841 49.7273C101.705 47.7727 102.136 45.7273 102.136 43.5909C102.136 41.1364 101.545 39.0114 100.364 37.2159C99.2045 35.4205 97.6136 34.0341 95.5909 33.0568C93.5682 32.0795 91.2955 31.5909 88.7727 31.5909C86.0909 31.5909 83.75 32.1477 81.75 33.2614C79.7727 34.3523 78.2386 35.8864 77.1477 37.8636C76.0795 39.8409 75.5455 42.1591 75.5455 44.8182H67.5C67.5 40.7273 68.4432 37.1364 70.3295 34.0455C72.2159 30.9545 74.7841 28.5455 78.0341 26.8182C81.3068 25.0909 84.9773 24.2273 89.0455 24.2273C93.1364 24.2273 96.7614 25.0909 99.9205 26.8182C103.08 28.5455 105.557 30.875 107.352 33.8068C109.148 36.7386 110.045 40 110.045 43.5909C110.045 46.1591 109.58 48.6705 108.648 51.125C107.739 53.5568 106.148 56.2727 103.875 59.2727C101.625 62.25 98.5 65.8864 94.5 70.1818L78.8182 86.9545V87.5H111.273V95H67.2273Z" fill="black"/>
</svg>
