<svg width="180" height="120" viewBox="0 0 180 120" fill="none" xmlns="http://www.w3.org/2000/svg">
<rect opacity="0.3" width="180" height="120" rx="10" fill="#D9D9D9"/>
<path d="M89.5909 95.9545C84.9091 95.9545 80.7727 95.125 77.1818 93.4659C73.6136 91.7841 70.8295 89.4773 68.8295 86.5455C66.8295 83.5909 65.8409 80.2273 65.8636 76.4545C65.8409 73.5 66.4205 70.7727 67.6023 68.2727C68.7841 65.75 70.3977 63.6477 72.4432 61.9659C74.5114 60.2614 76.8182 59.1818 79.3636 58.7273V58.3182C76.0227 57.4545 73.3636 55.5795 71.3864 52.6932C69.4091 49.7841 68.4318 46.4773 68.4545 42.7727C68.4318 39.2273 69.3295 36.0568 71.1477 33.2614C72.9659 30.4659 75.4659 28.2614 78.6477 26.6477C81.8523 25.0341 85.5 24.2273 89.5909 24.2273C93.6364 24.2273 97.25 25.0341 100.432 26.6477C103.614 28.2614 106.114 30.4659 107.932 33.2614C109.773 36.0568 110.705 39.2273 110.727 42.7727C110.705 46.4773 109.693 49.7841 107.693 52.6932C105.716 55.5795 103.091 57.4545 99.8182 58.3182V58.7273C102.341 59.1818 104.614 60.2614 106.636 61.9659C108.659 63.6477 110.273 65.75 111.477 68.2727C112.682 70.7727 113.295 73.5 113.318 76.4545C113.295 80.2273 112.273 83.5909 110.25 86.5455C108.25 89.4773 105.466 91.7841 101.898 93.4659C98.3523 95.125 94.25 95.9545 89.5909 95.9545ZM89.5909 88.4545C92.75 88.4545 95.4773 87.9432 97.7727 86.9205C100.068 85.8977 101.841 84.4545 103.091 82.5909C104.341 80.7273 104.977 78.5455 105 76.0455C104.977 73.4091 104.295 71.0795 102.955 69.0568C101.614 67.0341 99.7841 65.4432 97.4659 64.2841C95.1705 63.125 92.5455 62.5455 89.5909 62.5455C86.6136 62.5455 83.9545 63.125 81.6136 64.2841C79.2955 65.4432 77.4659 67.0341 76.125 69.0568C74.8068 71.0795 74.1591 73.4091 74.1818 76.0455C74.1591 78.5455 74.7614 80.7273 75.9886 82.5909C77.2386 84.4545 79.0227 85.8977 81.3409 86.9205C83.6591 87.9432 86.4091 88.4545 89.5909 88.4545ZM89.5909 55.3182C92.0909 55.3182 94.3068 54.8182 96.2386 53.8182C98.1932 52.8182 99.7273 51.4205 100.841 49.625C101.955 47.8295 102.523 45.7273 102.545 43.3182C102.523 40.9545 101.966 38.8977 100.875 37.1477C99.7841 35.375 98.2727 34.0114 96.3409 33.0568C94.4091 32.0795 92.1591 31.5909 89.5909 31.5909C86.9773 31.5909 84.6932 32.0795 82.7386 33.0568C80.7841 34.0114 79.2727 35.375 78.2045 37.1477C77.1364 38.8977 76.6136 40.9545 76.6364 43.3182C76.6136 45.7273 77.1477 47.8295 78.2386 49.625C79.3523 51.4205 80.8864 52.8182 82.8409 53.8182C84.7955 54.8182 87.0455 55.3182 89.5909 55.3182Z" fill="black"/>
</svg>
