<svg width="180" height="120" viewBox="0 0 180 120" fill="none" xmlns="http://www.w3.org/2000/svg">
<rect opacity="0.3" width="180" height="120" rx="10" fill="#D9D9D9"/>
<path d="M89.0455 95.9545C85.0455 95.9545 81.4432 95.1591 78.2386 93.5682C75.0341 91.9773 72.4659 89.7955 70.5341 87.0227C68.6023 84.25 67.5455 81.0909 67.3636 77.5455H75.5455C75.8636 80.7045 77.2955 83.3182 79.8409 85.3864C82.4091 87.4318 85.4773 88.4545 89.0455 88.4545C91.9091 88.4545 94.4545 87.7841 96.6818 86.4432C98.9318 85.1023 100.693 83.2614 101.966 80.9205C103.261 78.5568 103.909 75.8864 103.909 72.9091C103.909 69.8636 103.239 67.1477 101.898 64.7614C100.58 62.3523 98.7614 60.4545 96.4432 59.0682C94.125 57.6818 91.4773 56.9773 88.5 56.9545C86.3636 56.9318 84.1705 57.2614 81.9205 57.9432C79.6705 58.6023 77.8182 59.4545 76.3636 60.5L68.4545 59.5455L72.6818 25.1818H108.955V32.6818H79.7727L77.3182 53.2727H77.7273C79.1591 52.1364 80.9545 51.1932 83.1136 50.4432C85.2727 49.6932 87.5227 49.3182 89.8636 49.3182C94.1364 49.3182 97.9432 50.3409 101.284 52.3864C104.648 54.4091 107.284 57.1818 109.193 60.7045C111.125 64.2273 112.091 68.25 112.091 72.7727C112.091 77.2273 111.091 81.2045 109.091 84.7045C107.114 88.1818 104.386 90.9318 100.909 92.9545C97.4318 94.9545 93.4773 95.9545 89.0455 95.9545Z" fill="black"/>
</svg>
