<svg width="180" height="120" viewBox="0 0 180 120" fill="none" xmlns="http://www.w3.org/2000/svg">
<rect opacity="0.3" width="180" height="120" rx="10" fill="#D9D9D9"/>
<path d="M89.4545 24.2273C92.3182 24.25 95.1818 24.7955 98.0455 25.8636C100.909 26.9318 103.523 28.7045 105.886 31.1818C108.25 33.6364 110.148 36.9886 111.58 41.2386C113.011 45.4886 113.727 50.8182 113.727 57.2273C113.727 63.4318 113.136 68.9432 111.955 73.7614C110.795 78.5568 109.114 82.6023 106.909 85.8977C104.727 89.1932 102.068 91.6932 98.9318 93.3977C95.8182 95.1023 92.2955 95.9545 88.3636 95.9545C84.4545 95.9545 80.9659 95.1818 77.8977 93.6364C74.8523 92.0682 72.3523 89.8977 70.3977 87.125C68.4659 84.3295 67.2273 81.0909 66.6818 77.4091H75C75.75 80.6136 77.2386 83.2614 79.4659 85.3523C81.7159 87.4205 84.6818 88.4545 88.3636 88.4545C93.75 88.4545 98 86.1023 101.114 81.3977C104.25 76.6932 105.818 70.0455 105.818 61.4545H105.273C104 63.3636 102.489 65.0114 100.739 66.3977C98.9886 67.7841 97.0455 68.8523 94.9091 69.6023C92.7727 70.3523 90.5 70.7273 88.0909 70.7273C84.0909 70.7273 80.4205 69.7386 77.0795 67.7614C73.7614 65.7614 71.1023 63.0227 69.1023 59.5455C67.125 56.0455 66.1364 52.0455 66.1364 47.5455C66.1364 43.2727 67.0909 39.3636 69 35.8182C70.9318 32.25 73.6364 29.4091 77.1136 27.2955C80.6136 25.1818 84.7273 24.1591 89.4545 24.2273ZM89.4545 31.7273C86.5909 31.7273 84.0114 32.4432 81.7159 33.875C79.4432 35.2841 77.6364 37.1932 76.2955 39.6023C74.9773 41.9886 74.3182 44.6364 74.3182 47.5455C74.3182 50.4545 74.9545 53.1023 76.2273 55.4886C77.5227 57.8523 79.2841 59.7386 81.5114 61.1477C83.7614 62.5341 86.3182 63.2273 89.1818 63.2273C91.3409 63.2273 93.3523 62.8068 95.2159 61.9659C97.0795 61.1023 98.7045 59.9318 100.091 58.4545C101.5 56.9545 102.602 55.2614 103.398 53.375C104.193 51.4659 104.591 49.4773 104.591 47.4091C104.591 44.6818 103.932 42.125 102.614 39.7386C101.318 37.3523 99.5227 35.4205 97.2273 33.9432C94.9545 32.4659 92.3636 31.7273 89.4545 31.7273Z" fill="black"/>
</svg>
