<svg width="180" height="120" viewBox="0 0 180 120" fill="none" xmlns="http://www.w3.org/2000/svg">
<rect opacity="0.3" width="180" height="120" rx="10" fill="#D9D9D9"/>
<path d="M90.4091 95.9545C87.5455 95.9091 84.6818 95.3636 81.8182 94.3182C78.9545 93.2727 76.3409 91.5114 73.9773 89.0341C71.6136 86.5341 69.7159 83.1591 68.2841 78.9091C66.8523 74.6364 66.1364 69.2727 66.1364 62.8182C66.1364 56.6364 66.7159 51.1591 67.875 46.3864C69.0341 41.5909 70.7159 37.5568 72.9205 34.2841C75.125 30.9886 77.7841 28.4886 80.8977 26.7841C84.0341 25.0795 87.5682 24.2273 91.5 24.2273C95.4091 24.2273 98.8864 25.0114 101.932 26.5795C105 28.125 107.5 30.2841 109.432 33.0568C111.364 35.8295 112.614 39.0227 113.182 42.6364H104.864C104.091 39.5 102.591 36.8977 100.364 34.8295C98.1364 32.7614 95.1818 31.7273 91.5 31.7273C86.0909 31.7273 81.8295 34.0795 78.7159 38.7841C75.625 43.4886 74.0682 50.0909 74.0455 58.5909H74.5909C75.8636 56.6591 77.375 55.0114 79.125 53.6477C80.8977 52.2614 82.8523 51.1932 84.9886 50.4432C87.125 49.6932 89.3864 49.3182 91.7727 49.3182C95.7727 49.3182 99.4318 50.3182 102.75 52.3182C106.068 54.2955 108.727 57.0341 110.727 60.5341C112.727 64.0114 113.727 68 113.727 72.5C113.727 76.8182 112.761 80.7727 110.83 84.3636C108.898 87.9318 106.182 90.7727 102.682 92.8864C99.2045 94.9773 95.1136 96 90.4091 95.9545ZM90.4091 88.4545C93.2727 88.4545 95.8409 87.7386 98.1136 86.3068C100.409 84.875 102.216 82.9545 103.534 80.5455C104.875 78.1364 105.545 75.4545 105.545 72.5C105.545 69.6136 104.898 66.9886 103.602 64.625C102.33 62.2386 100.568 60.3409 98.3182 58.9318C96.0909 57.5227 93.5455 56.8182 90.6818 56.8182C88.5227 56.8182 86.5114 57.25 84.6477 58.1136C82.7841 58.9545 81.1477 60.1136 79.7386 61.5909C78.3523 63.0682 77.2614 64.7614 76.4659 66.6705C75.6705 68.5568 75.2727 70.5455 75.2727 72.6364C75.2727 75.4091 75.9205 78 77.2159 80.4091C78.5341 82.8182 80.3295 84.7614 82.6023 86.2386C84.8977 87.7159 87.5 88.4545 90.4091 88.4545Z" fill="black"/>
</svg>
