<svg width="180" height="120" viewBox="0 0 180 120" fill="none" xmlns="http://www.w3.org/2000/svg">
<rect opacity="0.3" width="180" height="120" rx="10" fill="#D9D9D9"/>
<path d="M89.8182 95.9545C85.3182 95.9545 81.3068 95.1818 77.7841 93.6364C74.2841 92.0909 71.5 89.9432 69.4318 87.1932C67.3864 84.4205 66.2727 81.2045 66.0909 77.5455H74.6818C74.8636 79.7955 75.6364 81.7386 77 83.375C78.3636 84.9886 80.1477 86.2386 82.3523 87.125C84.5568 88.0114 87 88.4545 89.6818 88.4545C92.6818 88.4545 95.3409 87.9318 97.6591 86.8864C99.9773 85.8409 101.795 84.3864 103.114 82.5227C104.432 80.6591 105.091 78.5 105.091 76.0455C105.091 73.4773 104.455 71.2159 103.182 69.2614C101.909 67.2841 100.045 65.7386 97.5909 64.625C95.1364 63.5114 92.1364 62.9545 88.5909 62.9545H83V55.4545H88.5909C91.3636 55.4545 93.7955 54.9545 95.8864 53.9545C98 52.9545 99.6477 51.5455 100.83 49.7273C102.034 47.9091 102.636 45.7727 102.636 43.3182C102.636 40.9545 102.114 38.8977 101.068 37.1477C100.023 35.3977 98.5455 34.0341 96.6364 33.0568C94.75 32.0795 92.5227 31.5909 89.9545 31.5909C87.5455 31.5909 85.2727 32.0341 83.1364 32.9205C81.0227 33.7841 79.2955 35.0455 77.9545 36.7045C76.6136 38.3409 75.8864 40.3182 75.7727 42.6364H67.5909C67.7273 38.9773 68.8295 35.7727 70.8977 33.0227C72.9659 30.25 75.6705 28.0909 79.0114 26.5455C82.375 25 86.0682 24.2273 90.0909 24.2273C94.4091 24.2273 98.1136 25.1023 101.205 26.8523C104.295 28.5795 106.67 30.8636 108.33 33.7045C109.989 36.5455 110.818 39.6136 110.818 42.9091C110.818 46.8409 109.784 50.1932 107.716 52.9659C105.67 55.7386 102.886 57.6591 99.3636 58.7273V59.2727C103.773 60 107.216 61.875 109.693 64.8977C112.17 67.8977 113.409 71.6136 113.409 76.0455C113.409 79.8409 112.375 83.25 110.307 86.2727C108.261 89.2727 105.466 91.6364 101.92 93.3636C98.375 95.0909 94.3409 95.9545 89.8182 95.9545Z" fill="black"/>
</svg>
