<svg width="180" height="120" viewBox="0 0 180 120" fill="none" xmlns="http://www.w3.org/2000/svg">
<rect opacity="0.3" width="180" height="120" rx="10" fill="#D9D9D9"/>
<path d="M69.7727 25.1818V95H61.3182V34.0455H60.9091L43.8636 45.3636V36.7727L61.3182 25.1818H69.7727ZM89.8523 95V88.8636L112.898 63.6364C115.602 60.6818 117.83 58.1136 119.58 55.9318C121.33 53.7273 122.625 51.6591 123.466 49.7273C124.33 47.7727 124.761 45.7273 124.761 43.5909C124.761 41.1364 124.17 39.0114 122.989 37.2159C121.83 35.4205 120.239 34.0341 118.216 33.0568C116.193 32.0795 113.92 31.5909 111.398 31.5909C108.716 31.5909 106.375 32.1477 104.375 33.2614C102.398 34.3523 100.864 35.8864 99.7727 37.8636C98.7045 39.8409 98.1705 42.1591 98.1705 44.8182H90.125C90.125 40.7273 91.0682 37.1364 92.9545 34.0455C94.8409 30.9545 97.4091 28.5455 100.659 26.8182C103.932 25.0909 107.602 24.2273 111.67 24.2273C115.761 24.2273 119.386 25.0909 122.545 26.8182C125.705 28.5455 128.182 30.875 129.977 33.8068C131.773 36.7386 132.67 40 132.67 43.5909C132.67 46.1591 132.205 48.6705 131.273 51.125C130.364 53.5568 128.773 56.2727 126.5 59.2727C124.25 62.25 121.125 65.8864 117.125 70.1818L101.443 86.9545V87.5H133.898V95H89.8523Z" fill="black"/>
</svg>
