<svg width="180" height="120" viewBox="0 0 180 120" fill="none" xmlns="http://www.w3.org/2000/svg">
<rect opacity="0.3" width="180" height="120" rx="10" fill="#D9D9D9"/>
<path d="M69.7727 25.1818V95H61.3182V34.0455H60.9091L43.8636 45.3636V36.7727L61.3182 25.1818H69.7727ZM112.625 95.9545C107.489 95.9545 103.114 94.5568 99.5 91.7614C95.8864 88.9432 93.125 84.8636 91.2159 79.5227C89.3068 74.1591 88.3523 67.6818 88.3523 60.0909C88.3523 52.5455 89.3068 46.1023 91.2159 40.7614C93.1477 35.3977 95.9205 31.3068 99.5341 28.4886C103.17 25.6477 107.534 24.2273 112.625 24.2273C117.716 24.2273 122.068 25.6477 125.682 28.4886C129.318 31.3068 132.091 35.3977 134 40.7614C135.932 46.1023 136.898 52.5455 136.898 60.0909C136.898 67.6818 135.943 74.1591 134.034 79.5227C132.125 84.8636 129.364 88.9432 125.75 91.7614C122.136 94.5568 117.761 95.9545 112.625 95.9545ZM112.625 88.4545C117.716 88.4545 121.67 86 124.489 81.0909C127.307 76.1818 128.716 69.1818 128.716 60.0909C128.716 54.0455 128.068 48.8977 126.773 44.6477C125.5 40.3977 123.659 37.1591 121.25 34.9318C118.864 32.7045 115.989 31.5909 112.625 31.5909C107.58 31.5909 103.636 34.0795 100.795 39.0568C97.9545 44.0114 96.5341 51.0227 96.5341 60.0909C96.5341 66.1364 97.1705 71.2727 98.4432 75.5C99.7159 79.7273 101.545 82.9432 103.932 85.1477C106.341 87.3523 109.239 88.4545 112.625 88.4545Z" fill="black"/>
</svg>
