<svg width="220" height="52" viewBox="0 0 220 52" fill="none" xmlns="http://www.w3.org/2000/svg">
<rect opacity="0.4" width="220" height="52" rx="26" fill="white"/>
<path opacity="0.4" d="M77.4216 32V30.384C77.7362 30.4427 77.9789 30.4373 78.1496 30.368C78.3202 30.2933 78.4482 30.1547 78.5336 29.952C78.6189 29.7493 78.6936 29.48 78.7576 29.144C78.8429 28.6693 78.9176 28.1227 78.9816 27.504C79.0509 26.8853 79.1096 26.224 79.1576 25.52C79.2109 24.816 79.2589 24.096 79.3016 23.36H85.6616V32H83.7416V25.168H80.9976C80.9709 25.5147 80.9389 25.904 80.9016 26.336C80.8642 26.7627 80.8242 27.1947 80.7816 27.632C80.7389 28.0693 80.6909 28.4853 80.6376 28.88C80.5896 29.2693 80.5389 29.6027 80.4856 29.88C80.3629 30.504 80.1869 30.9973 79.9576 31.36C79.7336 31.7227 79.4189 31.9547 79.0136 32.056C78.6082 32.1627 78.0776 32.144 77.4216 32ZM91.7251 32.24C90.8611 32.24 90.1064 32.0453 89.4611 31.656C88.8157 31.2667 88.3144 30.7307 87.9571 30.048C87.6051 29.36 87.4291 28.5707 87.4291 27.68C87.4291 26.7733 87.6104 25.9787 87.9731 25.296C88.3357 24.6133 88.8397 24.08 89.4851 23.696C90.1304 23.312 90.8771 23.12 91.7251 23.12C92.5944 23.12 93.3517 23.3147 93.9971 23.704C94.6424 24.0933 95.1437 24.632 95.5011 25.32C95.8584 26.0027 96.0371 26.7893 96.0371 27.68C96.0371 28.576 95.8557 29.368 95.4931 30.056C95.1357 30.7387 94.6344 31.2747 93.9891 31.664C93.3437 32.048 92.5891 32.24 91.7251 32.24ZM91.7251 30.432C92.4931 30.432 93.0637 30.176 93.4371 29.664C93.8104 29.152 93.9971 28.4907 93.9971 27.68C93.9971 26.8427 93.8077 26.176 93.4291 25.68C93.0504 25.1787 92.4824 24.928 91.7251 24.928C91.2077 24.928 90.7811 25.0453 90.4451 25.28C90.1144 25.5093 89.8691 25.832 89.7091 26.248C89.5491 26.6587 89.4691 27.136 89.4691 27.68C89.4691 28.5173 89.6584 29.1867 90.0371 29.688C90.4211 30.184 90.9837 30.432 91.7251 30.432ZM97.7997 32V23.36H103.96V25.168H99.7277V32H97.7997ZM109.147 32.24C108.283 32.24 107.528 32.0453 106.883 31.656C106.238 31.2667 105.736 30.7307 105.379 30.048C105.027 29.36 104.851 28.5707 104.851 27.68C104.851 26.7733 105.032 25.9787 105.395 25.296C105.758 24.6133 106.262 24.08 106.907 23.696C107.552 23.312 108.299 23.12 109.147 23.12C110.016 23.12 110.774 23.3147 111.419 23.704C112.064 24.0933 112.566 24.632 112.923 25.32C113.28 26.0027 113.459 26.7893 113.459 27.68C113.459 28.576 113.278 29.368 112.915 30.056C112.558 30.7387 112.056 31.2747 111.411 31.664C110.766 32.048 110.011 32.24 109.147 32.24ZM109.147 30.432C109.915 30.432 110.486 30.176 110.859 29.664C111.232 29.152 111.419 28.4907 111.419 27.68C111.419 26.8427 111.23 26.176 110.851 25.68C110.472 25.1787 109.904 24.928 109.147 24.928C108.63 24.928 108.203 25.0453 107.867 25.28C107.536 25.5093 107.291 25.832 107.131 26.248C106.971 26.6587 106.891 27.136 106.891 27.68C106.891 28.5173 107.08 29.1867 107.459 29.688C107.843 30.184 108.406 30.432 109.147 30.432ZM117.218 32V25.072H114.33V23.36H122.034V25.072H119.146V32H117.218ZM131.038 23.36V32H129.19V26.36L125.078 32H123.534V23.36H125.382V28.856L129.51 23.36H131.038ZM133.268 32V23.36H140.772V32H138.844V25.168H135.196V32H133.268Z" fill="black"/>
</svg>
